<svg xmlns="http://www.w3.org/2000/svg" width="256" height="256" viewBox="0 0 256 256">
  <defs><linearGradient id="g" x1="0" y1="0" x2="1" y2="1"><stop offset="0" stop-color="#6ee7ff"/><stop offset="1" stop-color="#7bf8cf"/></linearGradient></defs>
  <rect width="256" height="256" rx="48" fill="#0b1020"/>
  <path d="M86 160c-18 0-34-14-34-36 0-22 16-36 34-36 10 0 20 4 26 12l-12 10c-4-5-9-7-14-7-9 0-18 7-18 21s9 21 18 21c7 0 12-3 16-9l12 9c-7 10-18 15-30 15zm66-72c22 0 38 16 38 36s-16 36-38 36-38-16-38-36 16-36 38-36zm0 54c10 0 20-8 20-18s-10-18-20-18-20 8-20 18 10 18 20 18z" fill="url(#g)"/>
</svg>